<mxfile host="app.diagrams.net" agent="Mozilla/5.0 (Windows NT 10.0; Win64; x64) AppleWebKit/537.36 (KHTML, like Gecko) Chrome/134.0.0.0 Safari/537.36" version="26.1.1">
  <diagram name="第 1 页" id="HUyxEWO2tBUFw-JeHVhr">
    <mxGraphModel dx="1097" dy="574" grid="1" gridSize="5" guides="1" tooltips="1" connect="1" arrows="1" fold="1" page="0" pageScale="1" pageWidth="1654" pageHeight="2336" math="0" shadow="0">
      <root>
        <mxCell id="0" />
        <mxCell id="1" parent="0" />
        <mxCell id="FNCe1pH83iVohBs1npDB-36" value="" style="rounded=1;whiteSpace=wrap;html=1;dashed=1;dashPattern=8 8;fillColor=#d5e8d4;strokeColor=#82b366;" vertex="1" parent="1">
          <mxGeometry x="660" y="107.5" width="180" height="385" as="geometry" />
        </mxCell>
        <mxCell id="FNCe1pH83iVohBs1npDB-35" value="" style="rounded=1;whiteSpace=wrap;html=1;dashed=1;dashPattern=8 8;fillColor=#d5e8d4;strokeColor=#82b366;" vertex="1" parent="1">
          <mxGeometry x="155" y="107.5" width="180" height="385" as="geometry" />
        </mxCell>
        <mxCell id="FNCe1pH83iVohBs1npDB-4" value="" style="rounded=1;whiteSpace=wrap;html=1;dashed=1;dashPattern=8 8;fillColor=#dae8fc;strokeColor=#6c8ebf;" vertex="1" parent="1">
          <mxGeometry x="400" y="250" width="180" height="240" as="geometry" />
        </mxCell>
        <mxCell id="FNCe1pH83iVohBs1npDB-18" value="" style="edgeStyle=orthogonalEdgeStyle;rounded=0;orthogonalLoop=1;jettySize=auto;html=1;startArrow=classic;startFill=1;shape=flexArrow;fillColor=#f5f5f5;strokeColor=#666666;" edge="1" parent="1" source="FNCe1pH83iVohBs1npDB-1" target="FNCe1pH83iVohBs1npDB-2">
          <mxGeometry relative="1" as="geometry" />
        </mxCell>
        <mxCell id="FNCe1pH83iVohBs1npDB-27" style="rounded=0;orthogonalLoop=1;jettySize=auto;html=1;exitX=0;exitY=0;exitDx=0;exitDy=0;entryX=1;entryY=1;entryDx=0;entryDy=0;shape=flexArrow;fillColor=#f5f5f5;strokeColor=#666666;" edge="1" parent="1" source="FNCe1pH83iVohBs1npDB-1" target="FNCe1pH83iVohBs1npDB-7">
          <mxGeometry relative="1" as="geometry" />
        </mxCell>
        <mxCell id="FNCe1pH83iVohBs1npDB-29" value="" style="edgeStyle=orthogonalEdgeStyle;rounded=0;orthogonalLoop=1;jettySize=auto;html=1;shape=flexArrow;fillColor=#f5f5f5;strokeColor=#666666;" edge="1" parent="1" source="FNCe1pH83iVohBs1npDB-1" target="FNCe1pH83iVohBs1npDB-9">
          <mxGeometry relative="1" as="geometry" />
        </mxCell>
        <mxCell id="FNCe1pH83iVohBs1npDB-1" value="&lt;font style=&quot;font-size: 14px;&quot;&gt;Microcontroller&lt;/font&gt;&lt;div&gt;&lt;font style=&quot;font-size: 14px;&quot;&gt;(SAMD21G)&lt;/font&gt;&lt;/div&gt;" style="rounded=1;whiteSpace=wrap;html=1;" vertex="1" parent="1">
          <mxGeometry x="430" y="270" width="120" height="60" as="geometry" />
        </mxCell>
        <mxCell id="FNCe1pH83iVohBs1npDB-38" style="edgeStyle=orthogonalEdgeStyle;rounded=0;orthogonalLoop=1;jettySize=auto;html=1;exitX=0.5;exitY=1;exitDx=0;exitDy=0;entryX=0.5;entryY=0;entryDx=0;entryDy=0;shape=flexArrow;fillColor=#f5f5f5;strokeColor=#666666;" edge="1" parent="1" source="FNCe1pH83iVohBs1npDB-2" target="FNCe1pH83iVohBs1npDB-37">
          <mxGeometry relative="1" as="geometry" />
        </mxCell>
        <mxCell id="FNCe1pH83iVohBs1npDB-2" value="&lt;span style=&quot;font-size: 14px;&quot;&gt;WIFI Module&lt;/span&gt;&lt;div&gt;&lt;span style=&quot;font-size: 14px;&quot;&gt;(WINC1500)&lt;/span&gt;&lt;/div&gt;" style="rounded=1;whiteSpace=wrap;html=1;" vertex="1" parent="1">
          <mxGeometry x="430" y="410" width="120" height="60" as="geometry" />
        </mxCell>
        <mxCell id="FNCe1pH83iVohBs1npDB-20" value="" style="edgeStyle=orthogonalEdgeStyle;rounded=0;orthogonalLoop=1;jettySize=auto;html=1;startArrow=classic;startFill=1;shape=flexArrow;width=14.166666666666668;startSize=8.833333333333334;fillColor=#f5f5f5;strokeColor=#666666;" edge="1" parent="1" source="FNCe1pH83iVohBs1npDB-3" target="FNCe1pH83iVohBs1npDB-1">
          <mxGeometry relative="1" as="geometry" />
        </mxCell>
        <mxCell id="FNCe1pH83iVohBs1npDB-24" value="" style="edgeStyle=orthogonalEdgeStyle;rounded=0;orthogonalLoop=1;jettySize=auto;html=1;startArrow=none;startFill=0;shape=flexArrow;fillColor=#f5f5f5;strokeColor=#666666;entryX=0.5;entryY=0;entryDx=0;entryDy=0;" edge="1" parent="1" source="FNCe1pH83iVohBs1npDB-3" target="FNCe1pH83iVohBs1npDB-12">
          <mxGeometry relative="1" as="geometry">
            <mxPoint x="750" y="410" as="targetPoint" />
          </mxGeometry>
        </mxCell>
        <mxCell id="FNCe1pH83iVohBs1npDB-3" value="&lt;span style=&quot;font-size: 14px;&quot;&gt;AI Audio Module&lt;/span&gt;&lt;div&gt;&lt;span style=&quot;font-size: 14px;&quot;&gt;(VC-02)&lt;/span&gt;&lt;/div&gt;" style="rounded=1;whiteSpace=wrap;html=1;" vertex="1" parent="1">
          <mxGeometry x="690" y="270" width="120" height="60" as="geometry" />
        </mxCell>
        <mxCell id="FNCe1pH83iVohBs1npDB-7" value="&lt;span style=&quot;font-size: 14px;&quot;&gt;OLED Module&lt;/span&gt;" style="rounded=1;whiteSpace=wrap;html=1;" vertex="1" parent="1">
          <mxGeometry x="195" y="140" width="100" height="50" as="geometry" />
        </mxCell>
        <mxCell id="FNCe1pH83iVohBs1npDB-9" value="&lt;span style=&quot;font-size: 14px;&quot;&gt;Motor Module&lt;/span&gt;" style="rounded=1;whiteSpace=wrap;html=1;" vertex="1" parent="1">
          <mxGeometry x="195" y="275" width="100" height="50" as="geometry" />
        </mxCell>
        <mxCell id="FNCe1pH83iVohBs1npDB-22" value="" style="edgeStyle=orthogonalEdgeStyle;rounded=0;orthogonalLoop=1;jettySize=auto;html=1;startArrow=none;startFill=0;shape=flexArrow;fillColor=#f5f5f5;strokeColor=#666666;" edge="1" parent="1" source="FNCe1pH83iVohBs1npDB-11" target="FNCe1pH83iVohBs1npDB-3">
          <mxGeometry relative="1" as="geometry" />
        </mxCell>
        <mxCell id="FNCe1pH83iVohBs1npDB-11" value="&lt;span style=&quot;font-size: 14px;&quot;&gt;Microphone Module&lt;/span&gt;" style="rounded=1;whiteSpace=wrap;html=1;" vertex="1" parent="1">
          <mxGeometry x="700" y="140" width="100" height="50" as="geometry" />
        </mxCell>
        <mxCell id="FNCe1pH83iVohBs1npDB-12" value="&lt;span style=&quot;font-size: 14px;&quot;&gt;Speaker Module&lt;/span&gt;" style="rounded=1;whiteSpace=wrap;html=1;" vertex="1" parent="1">
          <mxGeometry x="700" y="415" width="100" height="50" as="geometry" />
        </mxCell>
        <mxCell id="FNCe1pH83iVohBs1npDB-13" value="&lt;span style=&quot;font-size: 14px;&quot;&gt;LED Strips&lt;/span&gt;" style="rounded=1;whiteSpace=wrap;html=1;" vertex="1" parent="1">
          <mxGeometry x="195" y="415" width="100" height="50" as="geometry" />
        </mxCell>
        <mxCell id="FNCe1pH83iVohBs1npDB-15" value="&lt;font style=&quot;font-size: 16px;&quot;&gt;&lt;b&gt;System Control Task&lt;/b&gt;&lt;/font&gt;" style="text;html=1;align=center;verticalAlign=middle;whiteSpace=wrap;rounded=0;" vertex="1" parent="1">
          <mxGeometry x="405" y="220" width="170" height="30" as="geometry" />
        </mxCell>
        <mxCell id="FNCe1pH83iVohBs1npDB-19" value="&lt;font style=&quot;font-size: 14px;&quot;&gt;SPI&lt;/font&gt;" style="text;html=1;align=center;verticalAlign=middle;whiteSpace=wrap;rounded=0;" vertex="1" parent="1">
          <mxGeometry x="490" y="355" width="60" height="30" as="geometry" />
        </mxCell>
        <mxCell id="FNCe1pH83iVohBs1npDB-21" value="&lt;font style=&quot;font-size: 14px;&quot;&gt;I/O Pins&lt;/font&gt;" style="text;html=1;align=center;verticalAlign=middle;whiteSpace=wrap;rounded=0;" vertex="1" parent="1">
          <mxGeometry x="590" y="270" width="60" height="30" as="geometry" />
        </mxCell>
        <mxCell id="FNCe1pH83iVohBs1npDB-23" value="&lt;font style=&quot;font-size: 14px;&quot;&gt;I2S&lt;/font&gt;" style="text;html=1;align=center;verticalAlign=middle;whiteSpace=wrap;rounded=0;" vertex="1" parent="1">
          <mxGeometry x="700" y="210" width="60" height="30" as="geometry" />
        </mxCell>
        <mxCell id="FNCe1pH83iVohBs1npDB-25" value="&lt;font style=&quot;font-size: 14px;&quot;&gt;PWM&lt;/font&gt;&lt;span style=&quot;font-size: 14px; background-color: transparent; color: light-dark(rgb(0, 0, 0), rgb(255, 255, 255));&quot;&gt;/&lt;/span&gt;&lt;div&gt;&lt;span style=&quot;font-size: 14px; background-color: transparent; color: light-dark(rgb(0, 0, 0), rgb(255, 255, 255));&quot;&gt;DAC&lt;/span&gt;&lt;/div&gt;" style="text;html=1;align=center;verticalAlign=middle;whiteSpace=wrap;rounded=0;" vertex="1" parent="1">
          <mxGeometry x="690" y="350" width="60" height="30" as="geometry" />
        </mxCell>
        <mxCell id="FNCe1pH83iVohBs1npDB-28" value="&lt;font style=&quot;font-size: 14px;&quot;&gt;SPI&lt;/font&gt;" style="text;html=1;align=center;verticalAlign=middle;whiteSpace=wrap;rounded=0;" vertex="1" parent="1">
          <mxGeometry x="365" y="200" width="60" height="30" as="geometry" />
        </mxCell>
        <mxCell id="FNCe1pH83iVohBs1npDB-30" value="&lt;font style=&quot;font-size: 14px;&quot;&gt;PWM&lt;/font&gt;" style="text;html=1;align=center;verticalAlign=middle;whiteSpace=wrap;rounded=0;" vertex="1" parent="1">
          <mxGeometry x="350" y="270" width="60" height="30" as="geometry" />
        </mxCell>
        <mxCell id="FNCe1pH83iVohBs1npDB-31" style="rounded=0;orthogonalLoop=1;jettySize=auto;html=1;exitX=0;exitY=1;exitDx=0;exitDy=0;entryX=1.009;entryY=0.108;entryDx=0;entryDy=0;entryPerimeter=0;shape=flexArrow;fillColor=#f5f5f5;strokeColor=#666666;" edge="1" parent="1" source="FNCe1pH83iVohBs1npDB-1" target="FNCe1pH83iVohBs1npDB-13">
          <mxGeometry relative="1" as="geometry" />
        </mxCell>
        <mxCell id="FNCe1pH83iVohBs1npDB-32" value="&lt;font style=&quot;font-size: 14px;&quot;&gt;I/O&lt;/font&gt;&lt;div&gt;&lt;font style=&quot;font-size: 14px;&quot;&gt;Pins&lt;/font&gt;&lt;/div&gt;" style="text;html=1;align=center;verticalAlign=middle;whiteSpace=wrap;rounded=0;" vertex="1" parent="1">
          <mxGeometry x="325" y="345" width="60" height="30" as="geometry" />
        </mxCell>
        <mxCell id="FNCe1pH83iVohBs1npDB-34" value="&lt;span style=&quot;font-size: 14px;&quot;&gt;Power Module&lt;/span&gt;" style="rounded=1;whiteSpace=wrap;html=1;" vertex="1" parent="1">
          <mxGeometry x="440" y="125" width="100" height="50" as="geometry" />
        </mxCell>
        <mxCell id="FNCe1pH83iVohBs1npDB-37" value="&lt;b style=&quot;&quot;&gt;&lt;font style=&quot;font-size: 16px;&quot;&gt;WIFI Task&lt;/font&gt;&lt;/b&gt;" style="rounded=1;whiteSpace=wrap;html=1;" vertex="1" parent="1">
          <mxGeometry x="440" y="530" width="100" height="50" as="geometry" />
        </mxCell>
        <mxCell id="FNCe1pH83iVohBs1npDB-40" value="&lt;font style=&quot;font-size: 16px;&quot;&gt;&lt;b&gt;Actuator Control Task&lt;/b&gt;&lt;/font&gt;" style="text;html=1;align=center;verticalAlign=middle;whiteSpace=wrap;rounded=0;" vertex="1" parent="1">
          <mxGeometry x="160" y="70" width="170" height="30" as="geometry" />
        </mxCell>
        <mxCell id="FNCe1pH83iVohBs1npDB-41" value="&lt;font style=&quot;font-size: 16px;&quot;&gt;&lt;b&gt;Voice Control Task&lt;/b&gt;&lt;/font&gt;" style="text;html=1;align=center;verticalAlign=middle;whiteSpace=wrap;rounded=0;" vertex="1" parent="1">
          <mxGeometry x="665" y="70" width="170" height="30" as="geometry" />
        </mxCell>
      </root>
    </mxGraphModel>
  </diagram>
</mxfile>
